PathFileType	4	(X/Y/Z)	Patient4_TMGait_0pt8_01_right_13.trc.trc
DataRate	CameraRate	NumFrames	NumMarkers	Units	OrigDataRate	OrigDataStartFrame	OrigNumFrames
89.743589743590	89.743589743590	4	33	mm	89.743589743590	106	       141
Frame#	Time	Sacral			L.Shoulder			Chest			R.Shoulder			Neck			R.ASIS			L.ASIS			R.Thigh.Superior			R.Thigh.Lateral			R.Thigh.Inferior			R.Patella			L.Thigh.Superior			L.Thigh.Lateral			L.Thigh.Inferior			L.Patella			L.Shank.Superior			L.Shank.Lateral			L.Shank.Inferior			R.Shank.Superior			R.Shank.Lateral			R.Shank.Inferior			R.Heel			R.Midfoot.Superior			R.Midfoot.Lateral			R.Toe			L.Heel			L.Midfoot.Lateral			L.Midfoot.Superior			L.Toe			L.Elbow			L.Wrist			R.Elbow			R.Wrist			
		X1	Y1	Z1	X2	Y2	Z2	X3	Y3	Z3	X4	Y4	Z4	X5	Y5	Z5	X6	Y6	Z6	X7	Y7	Z7	X8	Y8	Z8	X9	Y9	Z9	X10	Y10	Z10	X11	Y11	Z11	X12	Y12	Z12	X13	Y13	Z13	X14	Y14	Z14	X15	Y15	Z15	X16	Y16	Z16	X17	Y17	Z17	X18	Y18	Z18	X19	Y19	Z19	X20	Y20	Z20	X21	Y21	Z21	X22	Y22	Z22	X23	Y23	Z23	X24	Y24	Z24	X25	Y25	Z25	X26	Y26	Z26	X27	Y27	Z27	X28	Y28	Z28	X29	Y29	Z29	X30	Y30	Z30	X31	Y31	Z31	X32	Y32	Z32	X33	Y33	Z33	

106	15.520000000000	874.118815826149	1007.910225001619	433.415646612889	1047.899927300980	1437.563707095278	252.471713537017	1149.488000291488	1370.866364657233	415.581716270988	1062.509191609082	1442.301894231374	589.264388368247	1031.324931766844	1499.155440059232	409.531289434505	1102.005305619862	947.024007587206	548.342432682979	1086.949374767093	967.837170333730	275.080989793674	1195.693381378035	790.985499407346	517.248630757123	1170.073165211225	667.106542776831	594.130333036205	1262.262791454192	636.210344028657	514.597393764446	1292.175272966908	524.697136890691	537.471073406620	1122.323070263685	749.062365991802	300.810473093806	1018.527828485058	640.318701260344	244.555825996223	1096.732103541046	555.698168373045	304.436752203593	1090.769468407950	488.840356417662	315.774125286878	1065.393373032984	418.403054511290	308.920719390162	972.523373361872	303.033218828541	266.173712196082	1029.412287422372	193.864441052585	336.495082035840	1222.561581225248	442.659502852534	540.594750115901	1104.641178819752	389.659923248624	597.135064714196	1101.776958867783	281.407987024096	544.785599109370	908.793124241348	206.054564147661	510.545455364625	1079.947343102179	156.286185151421	555.361708021117	969.122558180537	147.586930966362	583.811581929111	1148.835965714788	45.114784910452	578.093821545225	906.869102117342	38.366990142521	394.084769006343	971.604372801597	34.872946829843	305.325547054898	1055.958583033645	96.972497853286	323.372615469577	1181.109961536304	48.877518199013	281.380857118320	1093.800753487386	1097.674773905311	110.791566244477	1257.251536399075	892.543664834511	113.704846328114	1008.658524285361	1096.083749013138	702.846061173983	1158.602561326231	883.992131296151	680.526968909466	
107	15.531142857143	873.814257318412	1007.374019660332	432.166475385398	1048.670008377939	1437.785493771750	252.490983800882	1149.079427284934	1370.687888974795	416.098601142378	1060.950724142944	1441.488470096296	589.398455621353	1030.944013577201	1498.928116410273	409.564327383485	1101.322823068952	947.219157754396	548.238635109430	1087.359199677135	967.819673277058	274.724067734907	1196.059214237992	792.883805394748	516.941232178218	1172.141403398621	668.783505091559	594.297697195725	1264.382162435369	638.768258699264	514.726221644445	1296.303909771671	528.882351151392	538.094690248642	1119.726113928997	747.782689162369	300.996828052305	1014.289713318548	640.318620705273	244.128038731240	1090.717804718593	554.641697973938	304.284345456641	1083.784400683290	488.103202910182	315.645411155436	1058.157916116661	417.982670859115	308.786155200620	964.781184084011	303.052931009410	265.963391893250	1020.983834863661	193.629688357365	336.402449619090	1230.224449749583	444.735171067178	541.477272055707	1115.261423489711	385.793848985889	597.982517826906	1118.260862557439	277.384236058770	545.994282541520	929.657569317195	191.531921699124	511.313840833943	1103.089065109303	151.496707702694	557.409798263567	992.710187974716	137.165472454759	585.498869157986	1177.707428703259	44.516948999370	581.673456131672	897.896286244049	38.397531153393	394.058479119406	962.625372103773	34.867292812896	305.309772404000	1047.060384710207	96.865378973322	323.383922415461	1172.206660259335	48.627875642938	281.350726803358	1102.709157441062	1101.005862961881	107.693393258676	1277.425401988196	905.249234142687	112.286327030757	1001.482563688800	1095.563072921013	701.820883219275	1131.839173954987	869.663426614234	685.959860080827	
108	15.542285714286	873.650881566001	1006.767988071699	431.001382167404	1049.543597841788	1437.903966636736	252.680121797246	1148.844537784501	1370.355883764722	416.708848025292	1059.660881011761	1440.507525231440	589.668796281892	1030.705082979341	1498.557349406338	409.749828129244	1100.783853878730	947.164655582395	548.193221940312	1087.943631624530	967.713751658091	274.425736640833	1196.172369927082	794.110088780398	516.771762145642	1173.441495882090	669.800591202218	594.507302727027	1265.727543498598	640.463092663165	514.990389323576	1299.377633258250	532.408477013845	538.799722457717	1117.090084644038	746.392146626143	301.246058636920	1010.039254558603	640.296808753800	243.738896214156	1084.619450513330	553.575813478169	304.193430829159	1076.750585782453	487.387372797444	315.496543884808	1050.824448535405	417.594843290410	308.664593813404	956.969076242877	303.093751178912	265.772179213227	1012.516131095087	193.421766343359	336.328031314206	1237.136889923764	446.355465649286	542.483257496559	1125.677738112433	381.343837653959	599.019114375281	1134.947052274238	273.086853457102	547.476735648675	951.755558135712	176.389251460119	512.307364446615	1126.836702283994	146.626348300491	559.696656094978	1017.345485388990	126.512809264070	587.494500289016	1207.187189604582	44.525971189622	585.764889832910	888.934714996474	38.434634903440	394.027222818297	953.643334939921	34.865286710902	305.297423148693	1038.158883480782	96.769351875142	323.394678092699	1163.290712316730	48.387370771355	281.326997830783	1111.040795490781	1104.335121077089	104.921286683203	1296.614575688030	918.772329969095	111.407437552374	994.466164855443	1095.022765622667	700.909306701095	1104.662864200209	857.818526560931	691.053094793381	
109	15.553428571429	873.639288677698	1006.092674364035	429.917696007336	1050.527558060294	1437.912230436069	253.039452698187	1148.790539574007	1369.866767534729	417.418120810510	1058.641307411638	1439.372301152668	590.075382154903	1030.615624694079	1498.037540440524	410.088595958968	1100.395681106798	946.853195161997	548.200977593629	1088.689017486295	967.489880387684	274.199098351761	1196.035601497407	794.620525806232	516.741546107483	1173.947963537101	670.109695874784	594.757914643731	1266.278255882008	641.243183477904	515.375321354522	1301.388328424581	535.216066876225	539.541543951637	1114.437610738175	744.882278630546	301.520418236236	1005.774143705894	640.249322870437	243.383549058680	1078.460569011692	552.498917938139	304.148007379748	1069.694541208372	486.683028039355	315.316358902334	1043.410907866346	417.237713369045	308.546308535736	949.096265921707	303.160163924006	265.587892886262	1004.018739930589	193.240620907877	336.263533952254	1243.264444561997	447.522047654114	543.569340632228	1135.894634422673	376.398321606442	600.240644292665	1151.741705549914	268.672094478099	549.179638852075	975.023860398416	160.924685706829	513.547924300284	1151.063152665134	141.921872199399	562.147487945410	1042.949111523346	115.873595085604	589.746681930655	1237.080413447651	45.388287659642	590.140570321226	879.983141779793	38.481807316142	393.991918498126	944.659158004109	34.867333910262	305.288095015543	1029.255446353922	96.681917111970	323.403540789589	1154.361873708833	48.153028218586	281.310881621843	1118.791563032816	1107.590270658897	102.486747726124	1314.722094916133	933.021733259060	111.043514188088	987.492534105846	1094.560071332111	700.115987153827	1077.476394251294	848.496478915444	695.756132589133	
